PathFileType	3	(X/Y/Z)	running_2__view1_aligned.trc
DataRate	CameraRate	NumFrames	NumMarkers	Units	OrigDataRate	OrigDataStartFrame	OrigNumFrames
100.0	100.0	17	19	mm	100.0	5837	6354
Frame#	Time	pelvis			neck			head			hip_left			hip_right			knee_left			knee_right			ankle_left			ankle_right			heel_left			heel_right			toe_left			toe_right			shoulder_left			shoulder_right			elbow_left			elbow_right			wrist_left			wrist_right			
		X1	Y1	Z1	X2	Y2	Z2	X3	Y3	Z3	X4	Y4	Z4	X5	Y5	Z5	X6	Y6	Z6	X7	Y7	Z7	X8	Y8	Z8	X9	Y9	Z9	X10	Y10	Z10	X11	Y11	Z11	X12	Y12	Z12	X13	Y13	Z13	X14	Y14	Z14	X15	Y15	Z15	X16	Y16	Z16	X17	Y17	Z17	X18	Y18	Z18	X19	Y19	Z19	
5837	58.36000	67.816716	951.863202	164.117871	45.824068	1486.852082	306.479604	72.071598	1571.284919	452.692252	142.369459	956.555034	163.096740	-6.735995	947.171375	165.138968	147.051697	540.673738	250.827487	-63.251665	538.139048	293.692688	159.144670	136.845679	154.402692	-128.860880	252.139683	58.176830	159.737172	89.467757	117.710435	-133.051360	236.574811	10.227829	147.621686	78.900350	331.357889	-127.409813	117.525693	147.196607	214.144142	1464.995307	259.106476	-124.524792	1440.024919	267.023587	286.847602	1206.155028	199.121587	-217.628586	1202.182595	177.659167	192.315909	1116.243182	395.792082	-167.653161	1065.066359	354.805806
5838	58.37000	68.713859	952.496912	164.305539	45.995592	1487.626842	307.212922	71.901501	1571.789923	453.689740	143.275706	957.370009	163.112150	-5.847989	947.623815	165.498927	147.656040	540.693529	241.941850	-61.301854	539.935967	298.028465	158.635057	135.932918	144.663300	-127.600919	252.276487	68.346491	158.734462	88.791877	107.895982	-132.060447	236.072312	21.096805	148.115343	76.782352	320.237483	-125.271409	120.399535	158.534652	214.701305	1465.579832	260.680058	-124.238509	1441.713025	266.656124	290.042254	1207.112040	202.621404	-219.461030	1206.423675	173.146134	191.803179	1118.395246	398.340801	-169.866032	1065.799638	347.611666
5839	58.38000	68.896054	951.329765	163.833933	45.203090	1486.389951	307.860486	70.031220	1570.587530	454.492585	143.535323	956.144440	162.179356	-5.743179	946.515094	165.488479	148.298125	538.124345	234.217121	-59.195012	540.101877	303.713823	157.307876	139.467912	128.724630	-124.367604	249.871243	79.436821	156.819998	94.142523	91.450401	-129.041621	232.717616	32.784428	147.867939	75.999720	298.289245	-120.164246	121.276952	172.060829	214.494784	1464.796888	262.186018	-124.710887	1440.147753	265.904322	292.090172	1206.221458	204.367584	-221.435954	1206.450375	167.997678	192.908383	1116.536510	399.660029	-175.474213	1061.729104	341.024532
5840	58.39000	69.078249	950.162617	163.362327	44.410589	1485.153060	308.508050	68.160939	1569.385136	455.295430	143.794939	954.918870	161.246563	-5.638369	945.406374	165.478031	148.940210	535.555160	226.492393	-57.088170	540.267787	309.399182	155.980694	143.002905	112.785961	-121.134289	247.465998	90.527151	154.905534	99.493169	75.004820	-126.022796	229.362920	44.472051	147.620534	75.217087	276.341007	-115.057083	122.154368	185.587005	214.288263	1464.013945	263.691978	-125.183265	1438.582482	265.152520	294.138089	1205.330877	206.113764	-223.410879	1206.477075	162.849222	194.013588	1114.677774	400.979257	-181.082395	1057.658570	334.437398
5841	58.40000	69.260444	948.995470	162.890722	43.618087	1483.916169	309.155614	66.290658	1568.182743	456.098276	144.054556	953.693301	160.313769	-5.533558	944.297653	165.467583	149.582295	532.985976	218.767664	-54.981328	540.433697	315.084540	154.653513	146.537898	96.847292	-117.900974	245.060754	101.617481	152.991070	104.843815	58.559238	-123.003970	226.008224	56.159674	147.373129	74.434454	254.392769	-109.949919	123.031785	199.113181	214.081742	1463.231001	265.197939	-125.655643	1437.017210	264.400718	296.186007	1204.440296	207.859944	-225.385803	1206.503776	157.700765	195.118792	1112.819038	402.298484	-186.690576	1053.588036	327.850264
5842	58.41000	69.442639	947.828322	162.419116	42.825585	1482.679279	309.803178	64.420376	1566.980350	456.901121	144.314172	952.467732	159.380976	-5.428748	943.188933	165.457135	150.224379	530.416791	211.042936	-52.874486	540.599607	320.769899	153.326332	150.072892	80.908623	-114.667659	242.655510	112.707811	151.076606	110.194461	42.113657	-119.985145	222.653528	67.847297	147.125724	73.651822	232.444531	-104.842756	123.909201	212.639357	213.875220	1462.448057	266.703899	-126.128021	1435.451938	263.648916	298.233925	1203.549715	209.606123	-227.360728	1206.530476	152.552309	196.223996	1110.960302	403.617712	-192.298758	1049.517502	321.263130
5843	58.42000	69.624835	946.661175	161.947510	42.033084	1481.442388	310.450743	62.550095	1565.777957	457.703966	144.573789	951.242162	158.448182	-5.323938	942.080212	165.446687	150.866464	527.847607	203.318207	-50.767644	540.765517	326.455257	151.999150	153.607885	64.969954	-111.434344	240.250265	123.798142	149.162142	115.545107	25.668076	-116.966319	219.298832	79.534921	146.878319	72.869189	210.496293	-99.735592	124.786618	226.165533	213.668699	1461.665114	268.209859	-126.600398	1433.886667	262.897114	300.281843	1202.659133	211.352303	-229.335652	1206.557176	147.403852	197.329200	1109.101566	404.936940	-197.906939	1045.446968	314.675997
5844	58.43000	69.807030	945.494028	161.475905	41.240582	1480.205497	311.098307	60.679814	1564.575564	458.506811	144.833405	950.016593	157.515388	-5.219128	940.971492	165.436239	151.508549	525.278422	195.593479	-48.660802	540.931427	332.140615	150.671969	157.142879	49.031285	-108.201029	237.845021	134.888472	147.247678	120.895753	9.222495	-113.947494	215.944137	91.222544	146.630914	72.086556	188.548055	-94.628429	125.664034	239.691709	213.462178	1460.882170	269.715819	-127.072776	1432.321395	262.145312	302.329761	1201.768552	213.098483	-231.310577	1206.583876	142.255396	198.434404	1107.242830	406.256168	-203.515121	1041.376434	308.088863
5845	58.44000	69.989225	944.326880	161.004299	40.448081	1478.968606	311.745871	58.809532	1563.373170	459.309656	145.093022	948.791023	156.582595	-5.114318	939.862771	165.425791	152.150634	522.709238	187.868750	-46.553960	541.097337	337.825974	149.344788	160.677872	33.092616	-104.967714	235.439777	145.978802	145.333214	126.246399	-7.223086	-110.928668	212.589441	102.910167	146.383509	71.303924	166.599817	-89.521265	126.541451	253.217886	213.255657	1460.099226	271.221780	-127.545154	1430.756123	261.393510	304.377678	1200.877971	214.844663	-233.285501	1206.610577	137.106940	199.539608	1105.384094	407.575396	-209.123302	1037.305900	301.501729
5846	58.45000	70.171420	943.159733	160.532694	39.655579	1477.731716	312.393435	56.939251	1562.170777	460.112501	145.352639	947.565454	155.649801	-5.009507	938.754051	165.415343	152.792719	520.140053	180.144022	-44.447118	541.263247	343.511332	148.017607	164.212866	17.153946	-101.734400	233.034532	157.069132	143.418750	131.597045	-23.668667	-107.909842	209.234745	114.597790	146.136105	70.521291	144.651579	-84.414102	127.418867	266.744062	213.049135	1459.316283	272.727740	-128.017532	1429.190852	260.641708	306.425596	1199.987390	216.590843	-235.260426	1206.637277	131.958483	200.644813	1103.525358	408.894624	-214.731484	1033.235366	294.914595
5847	58.46000	70.353615	941.992585	160.061088	38.863077	1476.494825	313.040999	55.068970	1560.968384	460.915346	145.612255	946.339885	154.717008	-4.904697	937.645330	165.404895	153.434804	517.570868	172.419293	-42.340276	541.429157	349.196690	146.690425	167.747859	1.215277	-98.501085	230.629288	168.159462	141.504286	136.947691	-40.114248	-104.891017	205.880049	126.285413	145.888700	69.738658	122.703341	-79.306938	128.296284	280.270238	212.842614	1458.533339	274.233700	-128.489910	1427.625580	259.889906	308.473514	1199.096808	218.337022	-237.235350	1206.663977	126.810027	201.750017	1101.666622	410.213852	-220.339665	1029.164832	288.327462
5848	58.47000	70.535811	940.825438	159.589482	38.070576	1475.257934	313.688564	53.198688	1559.765991	461.718191	145.871872	945.114315	153.784214	-4.799887	936.536610	165.394447	154.076889	515.001684	164.694564	-40.233434	541.595067	354.882049	145.363244	171.282853	-14.723392	-95.267770	228.224044	179.249793	139.589822	142.298337	-56.559830	-101.872191	202.525353	137.973036	145.641295	68.956026	100.755103	-74.199775	129.173700	293.796414	212.636093	1457.750395	275.739660	-128.962288	1426.060308	259.138104	310.521432	1198.206227	220.083202	-239.210275	1206.690677	121.661571	202.855221	1099.807886	411.533080	-225.947847	1025.094298	281.740328
5849	58.48000	68.953203	940.015517	159.826087	35.427599	1474.412153	315.187548	49.834202	1559.010681	463.354215	144.400356	944.281009	153.738390	-6.493624	935.750068	165.913510	153.319733	514.546671	163.763240	-40.285598	540.932525	357.948637	142.454583	175.813317	-25.280121	-93.611496	223.550226	188.391615	136.149395	148.575357	-68.084899	-100.220800	196.533751	147.651975	143.438728	67.724970	85.298896	-72.037507	128.015038	306.686885	210.003261	1457.972052	277.479976	-131.333082	1424.745860	260.097242	309.750256	1200.330447	219.955499	-241.720658	1205.983688	120.946607	202.380136	1100.503946	410.685028	-229.327767	1022.775499	280.562916
5850	58.49000	67.370595	939.205596	160.062692	32.784622	1473.566372	316.686533	46.469716	1558.255370	464.990239	142.928840	943.447704	153.692566	-8.187361	934.963527	166.432574	152.562577	514.091658	162.831915	-40.337762	540.269983	361.015226	139.545921	180.343781	-35.836849	-91.955223	218.876408	197.533438	132.708968	154.852378	-79.609968	-98.569408	190.542149	157.330913	141.236162	66.493915	69.842689	-69.875239	126.856376	319.577355	207.370429	1458.193709	279.220292	-133.703876	1423.431412	261.056380	308.979081	1202.454668	219.827796	-244.231042	1205.276698	120.231644	201.905052	1101.200005	409.836976	-232.707687	1020.456699	279.385504
5851	58.50000	65.787987	938.395675	160.299297	30.141646	1472.720591	318.185517	43.105229	1557.500060	466.626264	141.457325	942.614398	153.646742	-9.881099	934.176985	166.951637	151.805422	513.636645	161.900591	-40.389926	539.607441	364.081815	136.637260	184.874245	-46.393578	-90.298949	214.202591	206.675260	129.268540	161.129398	-91.135038	-96.918017	184.550547	167.009851	139.033595	65.262860	54.386482	-67.712971	125.697714	332.467825	204.737598	1458.415366	280.960607	-136.074671	1422.116963	262.015518	308.207905	1204.578888	219.700094	-246.741425	1204.569709	119.516680	201.429968	1101.896064	408.988925	-236.087608	1018.137899	278.208091
5852	58.51000	64.205380	937.585753	160.535902	27.498669	1471.874810	319.684502	39.740743	1556.744750	468.262288	139.985809	941.781092	153.600917	-11.574836	933.390444	167.470701	151.048266	513.181632	160.969266	-40.442090	538.944899	367.148403	133.728599	189.404710	-56.950306	-88.642676	209.528773	215.817083	125.828113	167.406419	-102.660107	-95.266626	178.558944	176.688789	136.831029	64.031804	38.930275	-65.550703	124.539051	345.358296	202.104766	1458.637023	282.700923	-138.445465	1420.802515	262.974656	307.436729	1206.703109	219.572391	-249.251808	1203.862719	118.801717	200.954883	1102.592124	408.140873	-239.467528	1015.819099	277.030679
5853	58.52000	62.622772	936.775832	160.772507	24.855692	1471.029029	321.183486	36.376257	1555.989440	469.898312	138.514293	940.947786	153.555093	-13.268573	932.603903	167.989764	150.291110	512.726619	160.037941	-40.494254	538.282357	370.214992	130.819937	193.935174	-67.507035	-86.986402	204.854955	224.958906	122.387686	173.683440	-114.185176	-93.615234	172.567342	186.367727	134.628462	62.800749	23.474069	-63.388435	123.380389	358.248766	199.471934	1458.858680	284.441239	-140.816260	1419.488067	263.933794	306.665554	1208.827330	219.444688	-251.762191	1203.155729	118.086753	200.479799	1103.288183	407.292821	-242.847448	1013.500299	275.853267
